<svg xmlns="http://www.w3.org/2000/svg" width="1364.595" height="1096.451" viewBox="0 0 1364.595 1096.451">
  <g id="Group_4" data-name="Group 4" transform="matrix(-0.485, 0.875, -0.875, -0.485, 1845.389, -288.624)">
    <path id="Path_3" data-name="Path 3" d="M892.372,1094.617c138.647-81.952,290.469-208.494,387.476-398.452,130.576-255.694,216.243-432.157,333.764-547.34" transform="translate(0 -92.76)" fill="none" stroke="#000" stroke-width="2"/>
    <path id="Path_8" data-name="Path 8" d="M870.468,1102.544c150.29-86.1,312.269-216.216,409.38-406.379C1400.924,459.073,1483.388,290.1,1588.566,174.8" transform="translate(78 -6.199)" fill="none" stroke="#000" stroke-width="2"/>
    <path id="Path_4" data-name="Path 4" d="M884.062,1094.7c145.908-85.747,301.452-213.809,395.785-398.533,126.565-247.84,210.939-421.243,322.825-536.363" transform="translate(24 -66.215)" fill="none" stroke="#000" stroke-width="2"/>
    <path id="Path_6" data-name="Path 6" d="M863.377,1106.594c151.834-85.728,317.7-217.022,416.471-410.429,120.111-235.2,202.224-403.365,306.092-518.42" transform="translate(102 20.346)" fill="none" stroke="#000" stroke-width="2"/>
    <path id="Path_5" data-name="Path 5" d="M870.347,1102.619c150.021-85.863,312.273-216.063,409.5-406.454,121.656-238.226,204.329-407.678,309.818-522.605" transform="translate(57 -43.132)" fill="none" stroke="#000" stroke-width="2"/>
    <path id="Path_7" data-name="Path 7" d="M840.992,1120.2c145.613-85.679,344.683-239.622,438.856-424.032,113.8-222.838,193.486-385.5,290.018-500.087" transform="translate(135 43.429)" fill="none" stroke="#000" stroke-width="2"/>
  </g>
</svg>
