<svg xmlns="http://www.w3.org/2000/svg" width="1354.406" height="1084.481" viewBox="0 0 1354.406 1084.481">
  <g id="Group_4" data-name="Group 4" transform="translate(-566.847 -54.004)">
    <path id="Path_3" data-name="Path 3" d="M567.057,1229.663s494.8-106.627,712.79-533.5c130.576-255.694,216.243-432.157,333.764-547.34" transform="translate(0 -92.76)" fill="none" stroke="#000" stroke-width="2"/>
    <path id="Path_8" data-name="Path 8" d="M798.656,1140.976c167.645-83.76,368.272-223.691,481.192-444.811,169.814-332.529,263.674-531.057,450.443-635.087" transform="translate(78 -6.199)" fill="none" stroke="#000" stroke-width="2"/>
    <path id="Path_4" data-name="Path 4" d="M661.632,1201.1c176.752-67.411,471.507-217.65,618.215-504.935,141.257-276.61,229.958-460.5,363.177-574.3" transform="translate(24 -66.215)" fill="none" stroke="#000" stroke-width="2"/>
    <path id="Path_6" data-name="Path 6" d="M846.162,1116.16c156.567-85.574,331.229-219.364,433.685-419.995,185.073-362.41,279.929-565.654,503.419-660.981" transform="translate(102 20.346)" fill="none" stroke="#000" stroke-width="2"/>
    <path id="Path_5" data-name="Path 5" d="M717.15,1178.66c178.455-76.244,430.595-223.811,562.7-482.5C1431.35,399.492,1522.4,209.48,1672.661,98.256" transform="translate(57 -43.132)" fill="none" stroke="#000" stroke-width="2"/>
    <path id="Path_7" data-name="Path 7" d="M884.887,1094.195c145.613-85.679,300.788-213.62,394.961-398.03C1465.792,332.047,1560.669,128.6,1785.866,34.083" transform="translate(135 43.429)" fill="none" stroke="#000" stroke-width="2"/>
  </g>
</svg>
