<svg xmlns="http://www.w3.org/2000/svg" width="1354.202" height="1084.481" viewBox="0 0 1354.202 1084.481">
  <g id="Group_4" data-name="Group 4" transform="translate(-567.051 -54.004)">
    <path id="Path_3" data-name="Path 3" d="M567.057,1229.663s828.563-5.489,1046.554-432.357c130.576-255.694-117.521-533.3,0-648.481" transform="translate(0 -92.76)" fill="none" stroke="#000" stroke-width="2"/>
    <path id="Path_8" data-name="Path 8" d="M798.656,1140.976c167.645-83.76,488.035-268.525,600.955-489.645C1569.425,318.8,1543.522,165.107,1730.29,61.077" transform="translate(78 -6.199)" fill="none" stroke="#000" stroke-width="2"/>
    <path id="Path_4" data-name="Path 4" d="M661.632,1201.1c176.752-67.411,754.779-153.778,901.487-441.061,141.257-276.61-53.314-524.371,79.905-638.169" transform="translate(24 -66.215)" fill="none" stroke="#000" stroke-width="2"/>
    <path id="Path_6" data-name="Path 6" d="M846.162,1116.16c156.567-85.574,453.923-255.869,556.379-456.5,185.073-362.41,157.236-529.15,380.725-624.477" transform="translate(102 20.346)" fill="none" stroke="#000" stroke-width="2"/>
    <path id="Path_5" data-name="Path 5" d="M717.15,1178.66C895.6,1102.416,1263.7,919.894,1395.8,661.21c151.5-296.673,126.593-451.73,276.857-562.954" transform="translate(57 -43.132)" fill="none" stroke="#000" stroke-width="2"/>
    <path id="Path_7" data-name="Path 7" d="M884.887,1094.195c145.613-85.679,424.019-256.4,518.192-440.806,185.945-364.116,157.589-524.79,382.787-619.306" transform="translate(135 43.429)" fill="none" stroke="#000" stroke-width="2"/>
  </g>
</svg>
