<svg xmlns="http://www.w3.org/2000/svg" width="516.952" height="555.613" viewBox="0 0 516.952 555.613">
  <g id="Group_3" data-name="Group 3" transform="translate(-875.777 -1016.766)">
    <path id="Path_9" data-name="Path 9" d="M829.244,1125.255c160.755-85.078,344.441-221.2,450.6-429.09,22.453-43.968,43.578-85.593,63.878-125.184" transform="translate(47 446.24)" fill="none" stroke="#000" stroke-width="2"/>
    <path id="Path_10" data-name="Path 10" d="M972.181,1038.047c109.914-77.248,217.1-179.592,292.335-313.294" transform="translate(125 532.801)" fill="none" stroke="#000" stroke-width="2"/>
    <path id="Path_11" data-name="Path 11" d="M878.9,1097.7c147.278-85.641,305.467-214.564,400.948-401.534q20.6-40.339,39.826-78.122" transform="translate(71 472.785)" fill="none" stroke="#000" stroke-width="2"/>
    <path id="Path_12" data-name="Path 12" d="M1009.681,1010.6c85.785-65.441,167.734-146.8,231.588-247.049" transform="translate(149 559.346)" fill="none" stroke="#000" stroke-width="2"/>
    <path id="Path_13" data-name="Path 13" d="M918.6,1073.676c135.253-85.036,274.27-207.188,361.25-377.511,1.526-2.988,3.046-5.965,4.709-9.226" transform="translate(104 495.868)" fill="none" stroke="#000" stroke-width="2"/>
    <path id="Path_14" data-name="Path 14" d="M1037.216,988.93c62.208-50.509,121.675-109.946,172.706-179.557" transform="translate(182 582.429)" fill="none" stroke="#000" stroke-width="2"/>
  </g>
</svg>
